<svg width="24" height="24" viewBox="0 0 24 24" fill="none" xmlns="http://www.w3.org/2000/svg">
<g id="Name=Community, State=selected, Dimension=big">
<path id="Vector" d="M15.6 17.1333V19H3V17.1333C3 17.1333 3 13.4 9.3 13.4C15.6 13.4 15.6 17.1333 15.6 17.1333ZM12.45 8.26669C12.45 7.62061 12.2653 6.98903 11.9191 6.45183C11.573 5.91464 11.081 5.49594 10.5055 5.24869C9.92987 5.00145 9.29651 4.93676 8.68546 5.0628C8.07442 5.18885 7.51315 5.49997 7.07261 5.95682C6.63208 6.41367 6.33207 6.99573 6.21053 7.6294C6.08898 8.26307 6.15136 8.91988 6.38978 9.51679C6.6282 10.1137 7.03194 10.6239 7.54995 10.9828C8.06797 11.3418 8.67699 11.5334 9.3 11.5334C10.1354 11.5334 10.9366 11.1892 11.5274 10.5766C12.1181 9.96395 12.45 9.13306 12.45 8.26669ZM15.546 13.4C16.0993 13.844 16.552 14.4084 16.8723 15.0534C17.1926 15.6984 17.3727 16.4084 17.4 17.1333V19H21V17.1333C21 17.1333 21 13.7453 15.546 13.4ZM14.7 5.00003C14.0806 4.99705 13.4749 5.18906 12.963 5.5507C13.5097 6.34285 13.8037 7.29256 13.8037 8.26669C13.8037 9.24082 13.5097 10.1905 12.963 10.9827C13.4749 11.3443 14.0806 11.5363 14.7 11.5334C15.5354 11.5334 16.3366 11.1892 16.9274 10.5766C17.5181 9.96395 17.85 9.13306 17.85 8.26669C17.85 7.40032 17.5181 6.56943 16.9274 5.95682C16.3366 5.3442 15.5354 5.00003 14.7 5.00003Z" fill="#F6F6F6"/>
</g>
</svg>
