<svg width="24" height="24" viewBox="0 0 24 24" fill="none" xmlns="http://www.w3.org/2000/svg">
<g id="Name=Complexity, State=selected, Dimension=big">
<path id="Vector" d="M10.7156 15.3158C10.7156 14.0368 10.8266 13.1172 11.0486 12.557C11.2706 11.9968 11.7407 11.3848 12.4587 10.721C13.0856 10.1526 13.5636 9.65936 13.8927 9.24125C14.2217 8.82315 14.3859 8.34536 14.3853 7.80789C14.3853 7.16052 14.1752 6.62368 13.755 6.19736C13.3349 5.77105 12.7498 5.55789 12 5.55789C11.2202 5.55789 10.6278 5.80263 10.2229 6.2921C9.81804 6.78157 9.53119 7.27894 9.36238 7.7842L7 6.7421C7.3211 5.73157 7.90979 4.85526 8.76605 4.11316C9.62232 3.37105 10.7003 3 12 3C13.6055 3 14.8404 3.462 15.7046 4.386C16.5688 5.31 17.0006 6.41905 17 7.71315C17 8.50262 16.8358 9.17778 16.5073 9.73862C16.1789 10.2995 15.6627 10.9348 14.9587 11.6447C14.2095 12.3868 13.7547 12.9515 13.5945 13.3386C13.4342 13.7258 13.3538 14.3848 13.3532 15.3158H10.7156ZM12 21C11.4954 21 11.0636 20.8146 10.7046 20.4439C10.3456 20.0731 10.1657 19.6269 10.1651 19.1052C10.1645 18.5836 10.3443 18.1377 10.7046 17.7676C11.0648 17.3975 11.4966 17.2118 12 17.2105C12.5034 17.2092 12.9355 17.3949 13.2963 17.7676C13.6572 18.1402 13.8367 18.5861 13.8349 19.1052C13.833 19.6244 13.6535 20.0706 13.2963 20.4439C12.9391 20.8171 12.507 21.0025 12 21Z" fill="#F6F6F6"/>
</g>
</svg>
