<svg width="24" height="24" viewBox="0 0 24 24" fill="none" xmlns="http://www.w3.org/2000/svg">
<g id="Name=Crown, State=selected, Dimension=big">
<path id="Vector" d="M6.6 20C6.345 20 6.1314 19.9147 5.9592 19.744C5.787 19.5733 5.7006 19.3624 5.7 19.1111C5.6994 18.8598 5.7858 18.6489 5.9592 18.4782C6.1326 18.3075 6.3462 18.2222 6.6 18.2222H17.4C17.655 18.2222 17.8689 18.3075 18.0417 18.4782C18.2145 18.6489 18.3006 18.8598 18.3 19.1111C18.2994 19.3624 18.213 19.5736 18.0408 19.7449C17.8686 19.9161 17.655 20.0012 17.4 20H6.6ZM7.23 16.8889C6.795 16.8889 6.4089 16.7481 6.0717 16.4667C5.7345 16.1852 5.5281 15.8296 5.4525 15.4L4.5525 9.75555C4.5225 9.75555 4.4889 9.7594 4.4517 9.76711C4.4145 9.77481 4.3806 9.77837 4.35 9.77777C3.975 9.77777 3.6564 9.64829 3.3942 9.38933C3.132 9.13037 3.0006 8.81541 3 8.44444C2.9994 8.07348 3.1308 7.75881 3.3942 7.50044C3.6576 7.24207 3.9762 7.1123 4.35 7.11111C4.7238 7.10993 5.0427 7.2397 5.3067 7.50044C5.5707 7.76118 5.7018 8.07585 5.7 8.44444C5.7 8.54815 5.6886 8.64444 5.6658 8.73333C5.643 8.82222 5.6169 8.9037 5.5875 8.97778L8.4 10.2222L11.2125 6.42222C11.0475 6.3037 10.9125 6.14815 10.8075 5.95556C10.7025 5.76296 10.65 5.55556 10.65 5.33333C10.65 4.96296 10.7814 4.648 11.0442 4.38845C11.307 4.12889 11.6256 3.99941 12 4C12.3744 4.00059 12.6933 4.13037 12.9567 4.38933C13.2201 4.6483 13.3512 4.96296 13.35 5.33333C13.35 5.55556 13.2975 5.76296 13.1925 5.95556C13.0875 6.14815 12.9525 6.3037 12.7875 6.42222L15.6 10.2222L18.4125 8.97778C18.3825 8.9037 18.3561 8.82222 18.3333 8.73333C18.3105 8.64444 18.2994 8.54815 18.3 8.44444C18.3 8.07407 18.4314 7.75911 18.6942 7.49955C18.957 7.24 19.2756 7.11052 19.65 7.11111C20.0244 7.1117 20.3433 7.24148 20.6067 7.50044C20.8701 7.75941 21.0012 8.07407 21 8.44444C20.9988 8.81481 20.8677 9.12978 20.6067 9.38933C20.3457 9.64889 20.0268 9.77837 19.65 9.77777C19.62 9.77777 19.5864 9.77422 19.5492 9.76711C19.512 9.76 19.4781 9.75615 19.4475 9.75555L18.5475 15.4C18.4725 15.8296 18.2664 16.1852 17.9292 16.4667C17.592 16.7481 17.2056 16.8889 16.77 16.8889H7.23Z" fill="#F6F6F6"/>
</g>
</svg>
