<svg width="24" height="24" viewBox="0 0 24 24" fill="none" xmlns="http://www.w3.org/2000/svg">
<g id="Name=Link, State=selected, Dimension=big">
<path id="Vector" d="M13.7312 4.4243C14.1729 3.97549 14.6991 3.61857 15.2795 3.37413C15.8598 3.12968 16.4828 3.00254 17.1126 3.00004C17.7423 2.99754 18.3663 3.11972 18.9485 3.35955C19.5308 3.59938 20.0598 3.95211 20.5051 4.39739C20.9504 4.84268 21.3031 5.37171 21.5429 5.95398C21.7828 6.53624 21.905 7.16023 21.9025 7.78995C21.9 8.41967 21.7728 9.04267 21.5284 9.62301C21.2839 10.2034 20.927 10.7296 20.4782 11.1713L17.4482 14.2013L16.0332 12.7883L19.0632 9.7573C19.583 9.23774 19.8752 8.53296 19.8754 7.79801C19.8755 7.06305 19.5838 6.35812 19.0642 5.8383C18.5446 5.31848 17.8399 5.02634 17.1049 5.02615C16.37 5.02596 15.665 5.31774 15.1452 5.8373L12.1142 8.8683L10.7002 7.4543L13.7312 4.4243ZM15.8512 10.4643L10.4362 15.8783L9.0222 14.4643L14.4362 9.0503L15.8512 10.4643ZM8.8412 12.1403L5.8112 15.1713C5.29138 15.6911 4.99934 16.3962 4.99934 17.1313C4.99934 17.8664 5.29138 18.5715 5.8112 19.0913C6.33103 19.6111 7.03606 19.9032 7.7712 19.9032C8.50635 19.9032 9.21138 19.6111 9.7312 19.0913L12.7612 16.0603L14.1752 17.4743L11.1452 20.5043C10.2505 21.3991 9.03696 21.9019 7.77156 21.902C6.50616 21.9021 5.29254 21.3995 4.3977 20.5048C3.50286 19.6101 3.00009 18.3966 3 17.1312C2.99991 15.8658 3.5025 14.6521 4.3972 13.7573L7.4272 10.7273L8.8412 12.1403Z" fill="#F6F6F6"/>
</g>
</svg>
