<svg width="16" height="16" viewBox="0 0 16 16" fill="none" xmlns="http://www.w3.org/2000/svg">
<g id="Name=Complexity, State=unselected, Dimension=medium">
<path id="Vector" d="M7.14381 10.1408C7.14381 9.31508 7.21782 8.7214 7.36583 8.35973C7.51384 7.99806 7.8272 7.60295 8.30589 7.17441C8.72383 6.80743 9.04249 6.48898 9.26185 6.21905C9.48122 5.94913 9.5907 5.64067 9.59029 5.29367C9.59029 4.87573 9.45023 4.52915 9.17011 4.25392C8.88999 3.97869 8.49998 3.84107 8.00008 3.84107C7.4802 3.84107 7.0853 3.99908 6.81537 4.31508C6.54544 4.63108 6.35421 4.95218 6.24167 5.27838L4.66675 4.6056C4.88082 3.9532 5.27327 3.38745 5.84412 2.90835C6.41496 2.42925 7.13362 2.1897 8.00008 2.1897C9.07042 2.1897 9.89366 2.48796 10.4698 3.0845C11.046 3.68103 11.3338 4.39704 11.3334 5.23251C11.3334 5.74219 11.2239 6.17808 11.005 6.54016C10.786 6.90223 10.4419 7.31243 9.97256 7.77074C9.47307 8.24984 9.16991 8.61437 9.06308 8.86431C8.95625 9.11426 8.90263 9.53975 8.90222 10.1408H7.14381ZM8.00008 13.8105C7.66369 13.8105 7.37582 13.6908 7.13647 13.4515C6.89713 13.2121 6.77725 12.924 6.77684 12.5872C6.77643 12.2505 6.89631 11.9626 7.13647 11.7236C7.37664 11.4847 7.6645 11.3648 8.00008 11.364C8.33566 11.3632 8.62373 11.4831 8.8643 11.7236C9.10487 11.9642 9.22455 12.2521 9.22332 12.5872C9.2221 12.9224 9.10243 13.2105 8.8643 13.4515C8.62618 13.6924 8.3381 13.8121 8.00008 13.8105Z" fill="#A9A9A9"/>
</g>
</svg>
