<svg width="16" height="16" viewBox="0 0 16 16" fill="none" xmlns="http://www.w3.org/2000/svg">
<g id="Name=Crown, State=unselected, Dimension=medium">
<path id="Vector" d="M4.4 13.4001C4.23 13.4001 4.0876 13.3425 3.9728 13.2273C3.858 13.1121 3.8004 12.9697 3.8 12.8001C3.7996 12.6305 3.8572 12.4881 3.9728 12.3729C4.0884 12.2577 4.2308 12.2001 4.4 12.2001H11.6C11.77 12.2001 11.9126 12.2577 12.0278 12.3729C12.143 12.4881 12.2004 12.6305 12.2 12.8001C12.1996 12.9697 12.142 13.1123 12.0272 13.2279C11.9124 13.3435 11.77 13.4009 11.6 13.4001H4.4ZM4.82 11.3001C4.53 11.3001 4.2726 11.2051 4.0478 11.0151C3.823 10.8251 3.6854 10.5851 3.635 10.2951L3.035 6.4851C3.015 6.4851 2.9926 6.4877 2.9678 6.4929C2.943 6.4981 2.9204 6.5005 2.9 6.5001C2.65 6.5001 2.4376 6.4127 2.2628 6.2379C2.088 6.0631 2.0004 5.8505 2 5.6001C1.9996 5.3497 2.0872 5.1373 2.2628 4.9629C2.4384 4.7885 2.6508 4.7009 2.9 4.7001C3.1492 4.6993 3.3618 4.7869 3.5378 4.9629C3.7138 5.1389 3.8012 5.3513 3.8 5.6001C3.8 5.6701 3.7924 5.7351 3.7772 5.7951C3.762 5.8551 3.7446 5.9101 3.725 5.9601L5.6 6.8001L7.475 4.2351C7.365 4.1551 7.275 4.0501 7.205 3.9201C7.135 3.7901 7.1 3.6501 7.1 3.5001C7.1 3.2501 7.1876 3.0375 7.3628 2.8623C7.538 2.6871 7.7504 2.5997 8 2.6001C8.2496 2.6005 8.4622 2.6881 8.6378 2.8629C8.8134 3.0377 8.9008 3.2501 8.9 3.5001C8.9 3.6501 8.865 3.7901 8.795 3.9201C8.725 4.0501 8.635 4.1551 8.525 4.2351L10.4 6.8001L12.275 5.9601C12.255 5.9101 12.2374 5.8551 12.2222 5.7951C12.207 5.7351 12.1996 5.6701 12.2 5.6001C12.2 5.3501 12.2876 5.1375 12.4628 4.9623C12.638 4.7871 12.8504 4.6997 13.1 4.7001C13.3496 4.7005 13.5622 4.7881 13.7378 4.9629C13.9134 5.1377 14.0008 5.3501 14 5.6001C13.9992 5.8501 13.9118 6.0627 13.7378 6.2379C13.5638 6.4131 13.3512 6.5005 13.1 6.5001C13.08 6.5001 13.0576 6.4977 13.0328 6.4929C13.008 6.4881 12.9854 6.4855 12.965 6.4851L12.365 10.2951C12.315 10.5851 12.1776 10.8251 11.9528 11.0151C11.728 11.2051 11.4704 11.3001 11.18 11.3001H4.82Z" fill="#A9A9A9"/>
</g>
</svg>
