<svg width="16" height="16" viewBox="0 0 16 16" fill="none" xmlns="http://www.w3.org/2000/svg">
<g id="Name=Megaphone, State=unselected, Dimension=medium">
<path id="Vector" d="M13.0758 6.50056V2.76986C13.0758 2.60667 13.011 2.45016 12.8956 2.33476C12.7802 2.21937 12.6237 2.15454 12.4605 2.15454H11.8452C10.6274 3.37226 8.33967 4.05404 6.92258 4.3777V11.0072C8.33967 11.3308 10.6274 12.0126 11.8452 13.2303H12.4605C12.6237 13.2303 12.7802 13.1655 12.8956 13.0501C13.011 12.9347 13.0758 12.7782 13.0758 12.615V8.88432C13.3402 8.81633 13.5746 8.66232 13.7419 8.44655C13.9092 8.23078 14 7.96549 14 7.69244C14 7.4194 13.9092 7.15411 13.7419 6.93833C13.5746 6.72256 13.3402 6.56855 13.0758 6.50056ZM3.23064 4.61583C2.90426 4.61583 2.59124 4.74549 2.36045 4.97628C2.12966 5.20707 2 5.52009 2 5.84648V9.53841C2 9.8648 2.12966 10.1778 2.36045 10.4086C2.59124 10.6394 2.90426 10.7691 3.23064 10.7691H3.84597L4.46129 13.8457H5.69193V4.61583H3.23064Z" fill="#A9A9A9"/>
</g>
</svg>
