<svg width="16" height="16" viewBox="0 0 16 16" fill="none" xmlns="http://www.w3.org/2000/svg">
<g id="Name=Replies, State=unselected, Dimension=medium">
<path id="Vector" d="M8 14C7.85534 14 7.7166 13.9425 7.61431 13.8402C7.51201 13.7379 7.45455 13.5992 7.45455 13.4545V11.8182H5.27273C4.9834 11.8182 4.70592 11.7032 4.50134 11.4987C4.29675 11.2941 4.18182 11.0166 4.18182 10.7273V5.27273C4.18182 4.9834 4.29675 4.70592 4.50134 4.50134C4.70592 4.29675 4.9834 4.18182 5.27273 4.18182H12.9091C13.1984 4.18182 13.4759 4.29675 13.6805 4.50134C13.8851 4.70592 14 4.9834 14 5.27273V10.7273C14 11.0166 13.8851 11.2941 13.6805 11.4987C13.4759 11.7032 13.1984 11.8182 12.9091 11.8182H10.6727L8.65455 13.8418C8.54545 13.94 8.41455 14 8.27273 14H8ZM3.09091 9.63636H2V3.09091C2 2.80158 2.11493 2.52411 2.31952 2.31952C2.52411 2.11493 2.80158 2 3.09091 2H11.8182V3.09091H3.09091V9.63636Z" fill="#A9A9A9"/>
</g>
</svg>
