<svg width="16" height="16" viewBox="0 0 16 16" fill="none" xmlns="http://www.w3.org/2000/svg">
<g id="Name=Settings, State=unselected, Dimension=medium">
<path id="Vector" d="M9.54684 2H6.45261L6.09765 3.76564C5.80376 3.89658 5.5243 4.05744 5.26375 4.24564L3.54656 3.668L2 6.332L3.36113 7.52109C3.32826 7.83953 3.32826 8.16047 3.36113 8.47891L2 9.668L3.54711 12.332L5.26375 11.7549C5.5227 11.9415 5.8014 12.1029 6.09765 12.2344L6.45261 14H9.54684L9.9018 12.2344C10.1957 12.1034 10.4751 11.9426 10.7357 11.7544L12.4529 12.332L14 9.668L12.6383 8.47891C12.6712 8.16047 12.6712 7.83953 12.6383 7.52109L13.9995 6.332L12.4523 3.668L10.7362 4.24509C10.4757 4.05708 10.1962 3.89641 9.90234 3.76564L9.54684 2ZM7.99973 10.1818C7.41771 10.1818 6.85953 9.95195 6.44799 9.54278C6.03644 9.13361 5.80524 8.57865 5.80524 8C5.80524 7.42135 6.03644 6.86639 6.44799 6.45722C6.85953 6.04805 7.41771 5.81818 7.99973 5.81818C8.58174 5.81818 9.13992 6.04805 9.55146 6.45722C9.96301 6.86639 10.1942 7.42135 10.1942 8C10.1942 8.57865 9.96301 9.13361 9.55146 9.54278C9.13992 9.95195 8.58174 10.1818 7.99973 10.1818Z" fill="#A9A9A9"/>
</g>
</svg>
