<svg width="16" height="16" viewBox="0 0 16 16" fill="none" xmlns="http://www.w3.org/2000/svg">
<g id="Name=Like, State=unselected, Dimension=medium">
<path id="Vector" d="M14 7.4C14 7.08174 13.8755 6.77652 13.6539 6.55147C13.4322 6.32643 13.1316 6.2 12.8182 6.2H9.08364L9.65091 3.458C9.66273 3.398 9.66864 3.332 9.66864 3.266C9.66864 3.02 9.56818 2.792 9.40864 2.63L8.78227 2L4.89409 5.948C4.67545 6.17 4.54545 6.47 4.54545 6.8V12.8C4.54545 13.1183 4.66997 13.4235 4.8916 13.6485C5.11323 13.8736 5.41383 14 5.72727 14H11.0455C11.5359 14 11.9555 13.7 12.1327 13.268L13.9173 9.038C13.9705 8.9 14 8.756 14 8.6V7.4ZM1 14H3.36364V6.8H1V14Z" fill="#A9A9A9"/>
</g>
</svg>
