<svg width="16" height="16" viewBox="0 0 16 16" fill="none" xmlns="http://www.w3.org/2000/svg">
<g id="Name=Save, State=unselected, Dimension=medium">
<path id="Vector" d="M3.33325 4.1861C3.33325 3.42097 3.33325 3.0384 3.4907 2.74601C3.62918 2.48893 3.85014 2.27992 4.12192 2.14893C4.43103 2 4.83547 2 5.64436 2H9.68881C10.4977 2 10.9021 2 11.2113 2.14893C11.483 2.27992 11.704 2.48893 11.8425 2.74601C11.9999 3.0384 11.9999 3.42097 11.9999 4.1861V13.2755C11.9999 13.6075 11.9999 13.7735 11.927 13.8644C11.8955 13.9039 11.8552 13.9365 11.8091 13.9598C11.763 13.9832 11.712 13.9968 11.6598 13.9996C11.5391 14.0065 11.3933 13.9143 11.1015 13.7305L7.66659 11.5642L4.2317 13.7298C3.93992 13.9143 3.79403 14.0065 3.6727 13.9996C3.62058 13.9967 3.56976 13.983 3.52375 13.9597C3.47775 13.9363 3.43764 13.9038 3.4062 13.8644C3.33325 13.7735 3.33325 13.6075 3.33325 13.2755V4.1861Z" fill="#A9A9A9"/>
</g>
</svg>
