<svg width="24" height="24" viewBox="0 0 24 24" fill="none" xmlns="http://www.w3.org/2000/svg">
<g id="Name=Arrow Right, State=unselected, Dimension=big">
<g id="Group 156">
<path id="Vector" d="M13.0197 5.37306C13.2608 5.13419 13.5878 5 13.9287 5C14.2697 5 14.5966 5.13419 14.8378 5.37306L20.6236 11.1069C20.8646 11.3458 21 11.6698 21 12.0077C21 12.3456 20.8646 12.6696 20.6236 12.9085L14.8378 18.6423C14.5953 18.8744 14.2705 19.0029 13.9334 19C13.5963 18.997 13.2738 18.863 13.0354 18.6268C12.797 18.3906 12.6618 18.071 12.6589 17.7369C12.6559 17.4028 12.7855 17.081 13.0197 16.8406L16.5002 13.2819H4.28573C3.94474 13.2819 3.6177 13.1476 3.37658 12.9087C3.13546 12.6697 3 12.3456 3 12.0077C3 11.6698 3.13546 11.3457 3.37658 11.1067C3.6177 10.8678 3.94474 10.7335 4.28573 10.7335H16.5002L13.0197 7.17475C12.7787 6.9358 12.6433 6.61177 12.6433 6.2739C12.6433 5.93604 12.7787 5.612 13.0197 5.37306Z" fill="#A9A9A9"/>
</g>
</g>
</svg>
