<svg width="24" height="24" viewBox="0 0 24 24" fill="none" xmlns="http://www.w3.org/2000/svg">
<g id="Name=Dice, State=unselected, Dimension=big">
<path id="Vector" d="M4.22625 7.42179L6.22125 8.54306C6.51375 8.70826 6.88875 8.61336 7.05375 8.33568L9.96 3.42531C10.0725 3.2355 9.92625 3 9.69375 3C9.63375 3 9.57375 3.01757 9.52125 3.04921L4.19625 6.47276C3.83625 6.70475 3.85125 7.20738 4.22625 7.41828V7.42179ZM3 9.03515V13.3761C3 13.6573 3.39 13.7627 3.55125 13.5308L5.80125 10.297C5.98875 10.0299 5.89875 9.67135 5.60625 9.50615L3.9075 8.5536C3.51 8.32865 3 8.5993 3 9.03515ZM14.04 3.42531L16.95 8.33216C17.115 8.60984 17.4938 8.70475 17.7825 8.53954L19.7775 7.41828C20.1525 7.20738 20.1675 6.70475 19.8075 6.47276L14.4788 3.04921C14.4263 3.01757 14.3663 3 14.3063 3C14.0738 3 13.9275 3.2355 14.04 3.42531ZM21 9.03515C21 8.5993 20.49 8.32865 20.0925 8.5536L18.3938 9.50967C18.1013 9.67487 18.015 10.0334 18.1988 10.3005L20.4488 13.5343C20.61 13.7698 21 13.6608 21 13.3796V9.03866V9.03515ZM19.1513 17.6819L13.1288 18.3462C12.825 18.3779 12.6 18.6204 12.6 18.9051V20.761C12.6 20.891 12.7125 21 12.855 21C12.885 21 12.915 20.9965 12.945 20.9859L19.4213 18.7364C19.65 18.6591 19.8 18.4552 19.8 18.2267C19.8 17.8998 19.4963 17.6467 19.1513 17.6854V17.6819ZM11.145 20.9965C11.2838 20.9965 11.4 20.891 11.4 20.7575V18.9086C11.4 18.6239 11.1713 18.3849 10.8713 18.3497L4.84875 17.6819C4.50375 17.6432 4.2 17.8963 4.2 18.2232C4.2 18.4517 4.35 18.6555 4.57875 18.7329L11.055 20.9824C11.085 20.993 11.115 20.9965 11.145 20.9965ZM3.96375 16.4587L10.3725 17.1687C10.665 17.2004 10.875 16.9051 10.7288 16.6661L7.515 11.3937C7.29375 11.0281 6.73875 11.0141 6.49125 11.3656L3.5325 15.5905C3.28875 15.9385 3.52125 16.4095 3.96375 16.4587ZM20.4488 15.587L17.5088 11.3691C17.265 11.0176 16.7063 11.0316 16.485 11.3972L13.2825 16.6555C13.1363 16.8946 13.3425 17.1898 13.6388 17.1582L20.0175 16.4552C20.46 16.406 20.6925 15.9385 20.4488 15.5905V15.587ZM12.315 15.9736L15.255 11.1511C15.4838 10.775 15.195 10.3111 14.7338 10.3111H9.27C8.80875 10.3111 8.52 10.7786 8.74875 11.1511L11.6888 15.9736C11.8275 16.1986 12.1763 16.1986 12.315 15.9736ZM8.94 9.18629H15.06C15.5175 9.18629 15.8063 8.72584 15.585 8.34974L12.585 3.28822C12.48 3.10896 12.2775 3 12.06 3H11.94C11.7225 3 11.52 3.11248 11.415 3.28822L8.415 8.34974C8.19375 8.72584 8.4825 9.18629 8.94 9.18629Z" fill="#A9A9A9"/>
</g>
</svg>
