<svg width="24" height="24" viewBox="0 0 24 24" fill="none" xmlns="http://www.w3.org/2000/svg">
<g id="Name=Up, State=unselected, Dimension=big">
<path id="Vector" d="M20.6038 16.6176C20.35 16.8625 20.0059 17 19.6471 17C19.2882 17 18.9441 16.8625 18.6903 16.6176L11.9918 10.1526L5.29334 16.6176C5.03811 16.8555 4.69628 16.9872 4.34147 16.9842C3.98666 16.9812 3.64725 16.8438 3.39635 16.6017C3.14545 16.3595 3.00314 16.032 3.00005 15.6895C2.99697 15.3471 3.13337 15.0171 3.37987 14.7708L11.0351 7.3824C11.2889 7.13755 11.633 7 11.9918 7C12.3507 7 12.6948 7.13755 12.9486 7.3824L20.6038 14.7708C20.8575 15.0157 21 15.3479 21 15.6942C21 16.0405 20.8575 16.3727 20.6038 16.6176Z" fill="#A9A9A9"/>
</g>
</svg>
