<svg width="16" height="16" viewBox="0 0 16 16" fill="none" xmlns="http://www.w3.org/2000/svg">
<g id="Name=Up, State=unselected, Dimension=medium">
<path id="Vector" d="M13.7359 11.1895C13.5667 11.3586 13.3373 11.4536 13.098 11.4536C12.8588 11.4536 12.6294 11.3586 12.4602 11.1895L7.99455 6.72381L3.52889 11.1895C3.35874 11.3538 3.13086 11.4447 2.89431 11.4427C2.65777 11.4406 2.4315 11.3458 2.26423 11.1785C2.09697 11.0112 2.00209 10.7849 2.00003 10.5484C1.99798 10.3119 2.08891 10.084 2.25325 9.91383L7.35673 4.81034C7.52591 4.64122 7.75533 4.5462 7.99455 4.5462C8.23377 4.5462 8.4632 4.64122 8.63238 4.81034L13.7359 9.91383C13.905 10.083 14 10.3124 14 10.5517C14 10.7909 13.905 11.0203 13.7359 11.1895Z" fill="#A9A9A9"/>
</g>
</svg>
