<svg width="173" height="90" viewBox="0 0 173 90" fill="none" xmlns="http://www.w3.org/2000/svg">
<g clip-path="url(#clip0_148_10159)">
<path fill-rule="evenodd" clip-rule="evenodd" d="M107.093 12.93C107.092 12.8409 107.056 12.7556 106.993 12.6926C106.93 12.6296 106.845 12.5938 106.756 12.593H102.566C102.445 12.593 102.292 12.746 102.292 12.929V24.014C102.292 24.166 102.445 24.288 102.567 24.288H106.757C106.94 24.288 107.093 24.166 107.093 24.014V12.929V12.93ZM109.997 8.13501C111.435 8.13501 112.413 9.11201 112.413 10.548V26.334C112.413 27.769 111.435 28.746 109.997 28.746H99.387C97.95 28.746 96.971 27.769 96.971 26.334V10.548C96.971 9.11201 97.951 8.13501 99.387 8.13501H109.997ZM127.257 19.158V12.96C127.257 12.594 126.95 12.349 126.522 12.349H123.22C122.853 12.349 122.578 12.624 122.578 12.959V19.159H127.256L127.257 19.158ZM132.577 28.746H127.257V23.616H122.577V28.746H117.257V10.547C117.257 9.11201 118.236 8.13601 119.672 8.13601H130.16C131.598 8.13601 132.577 9.11201 132.577 10.547V28.746ZM147.419 12.868C147.419 12.715 147.266 12.562 147.144 12.562H142.741V18.059H147.144C147.266 18.059 147.419 17.907 147.419 17.784V12.868ZM150.385 8.13501C150.69 8.13449 150.992 8.19411 151.274 8.31046C151.556 8.42682 151.812 8.59762 152.028 8.81311C152.244 9.02859 152.415 9.28453 152.532 9.56626C152.649 9.848 152.709 10.15 152.709 10.455V19.891C152.709 21.143 151.639 22.212 150.385 22.212H150.232L152.77 28.746H147.572L145.003 22.212H142.741V28.746H137.421V8.13601L150.385 8.13501ZM167.705 14.059C167.705 13.173 167.093 12.562 166.206 12.562H163.026V24.288H166.206C167.093 24.288 167.705 23.678 167.705 22.792V14.059ZM168.805 8.13501C171.068 8.13501 172.995 9.99801 172.995 12.318V24.532C172.995 26.883 171.068 28.746 168.805 28.746H157.705V8.13601L168.805 8.13501ZM106.97 45.351V39.152C106.97 38.786 106.664 38.542 106.237 38.542H102.934C102.567 38.542 102.293 38.816 102.293 39.152V45.351H106.97ZM112.29 54.939H106.97V49.809H102.293V54.939H96.97V36.739C96.97 35.305 97.95 34.329 99.386 34.329H109.874C111.311 34.329 112.29 35.305 112.29 36.739V54.939ZM122.027 43.274V54.939H117.134V34.328H122.516L126.675 43.947L130.497 34.328H136.124V54.939H131.109V43.061L127.623 51.244H125.544L122.027 43.274ZM140.967 34.328H154.452V38.756H146.257V42.359H153.351V46.756H146.257V50.481H154.452V54.939H140.967V34.328ZM96.971 60.604H110.456V65.031H102.261V68.635H109.355V73.032H102.261V76.757H110.456V81.215H96.971V60.604ZM114.933 60.604H128.418V65.031H120.223V68.635H127.317V73.032H120.223V76.757H128.418V81.215H114.933V60.604ZM143.933 81.215L139.897 73.337L138.215 76.055V81.215H132.895V60.604H138.215V69.184L143.567 60.604H149.499L143.536 69.551L149.743 81.215H143.933Z" fill="#F6F6F6"/>
<path fill-rule="evenodd" clip-rule="evenodd" d="M87.2749 20.623C87.2749 20.47 87.1829 20.286 86.9689 20.286H82.1989V24.836H86.9689C87.1829 24.836 87.2749 24.684 87.2749 24.531V20.623ZM87.2749 12.562C87.2749 12.409 87.1829 12.225 86.9689 12.225H82.1989V16.5H86.9689C87.1829 16.5 87.2749 16.348 87.2749 16.165V12.562ZM76.9089 28.745V8.13403H89.6289C91.3109 8.13403 92.3809 9.20203 92.3809 10.729V15.309C92.3809 16.714 91.4639 18.058 89.5679 18.516C91.4639 18.974 92.5339 20.256 92.5339 21.63V26.119C92.5339 27.737 91.4639 28.745 89.7819 28.745H76.9089ZM86.3029 68.561H92.0809V78.851C92.0809 80.194 91.0419 81.203 89.7269 81.203H79.2939C77.9789 81.203 76.9089 80.194 76.9089 78.851V62.912C76.9089 61.66 77.9789 60.592 79.2939 60.592H92.0799V65.019H82.5039C82.3509 65.019 82.1979 65.171 82.1979 65.355V76.408C82.1979 76.592 82.3509 76.714 82.5039 76.714H86.8819C87.0959 76.714 87.2189 76.592 87.2189 76.408V72.928H84.4359L86.3029 68.561ZM86.3029 42.297H92.0809V52.587C92.0809 53.931 91.0419 54.939 89.7269 54.939H79.2939C77.9789 54.939 76.9089 53.931 76.9089 52.587V36.65C76.9089 35.397 77.9789 34.329 79.2939 34.329H92.0799V38.756H82.5039C82.3509 38.756 82.1979 38.909 82.1979 39.092V50.146C82.1979 50.329 82.3509 50.451 82.5039 50.451H86.8819C87.0959 50.451 87.2189 50.329 87.2189 50.146V46.666H84.4359L86.3019 42.298L86.3029 42.297Z" fill="#F6F6F6"/>
<path fill-rule="evenodd" clip-rule="evenodd" d="M58.584 17.512L49.72 19.927L58.4 1L2.119 21.715L5.196 46.528L0 51.537L15.494 90.348L48.426 78.214L59.874 51.339L54.96 46.601L58.584 17.512Z" fill="#FF5100"/>
</g>
<defs>
<clipPath id="clip0_148_10159">
<rect width="173" height="90" fill="white"/>
</clipPath>
</defs>
</svg>
