<svg width="82" height="40" viewBox="0 0 82 40" fill="none" xmlns="http://www.w3.org/2000/svg">
<path fill-rule="evenodd" clip-rule="evenodd" d="M25.5596 7.39222L21.6924 8.47338L25.4794 0L0.924499 9.27385L2.26697 20.3823L0 22.6248L6.75988 40L21.1278 34.5678L26.1225 22.5362L23.9785 20.415L25.5596 7.39222Z" fill="#FF5100"/>
<path fill-rule="evenodd" clip-rule="evenodd" d="M59.3523 17.9634H64.3265V26.93C64.3265 28.1011 63.432 28.9794 62.3 28.9794H53.3185C52.1864 28.9794 51.2653 28.1011 51.2653 26.93V13.0427C51.2653 11.9509 52.1864 11.0203 53.3185 11.0203H64.3256V14.8779H56.0819C55.9502 14.8779 55.8184 15.0112 55.8184 15.1707V24.8029C55.8184 24.9624 55.9502 25.0687 56.0819 25.0687H59.8508C60.035 25.0687 60.1409 24.9624 60.1409 24.8029V21.7705H57.7451L59.3515 17.9643L59.3523 17.9634Z" fill="#F6F6F6"/>
<path fill-rule="evenodd" clip-rule="evenodd" d="M76.4953 17.9634H81.4694V26.93C81.4694 28.1011 80.575 28.9794 79.4429 28.9794H70.4614C69.3293 28.9794 68.4082 28.1011 68.4082 26.93V13.0427C68.4082 11.9509 69.3293 11.0203 70.4614 11.0203H81.4686V14.8779H73.2248C73.0931 14.8779 72.9614 15.0112 72.9614 15.1707V24.8029C72.9614 24.9624 73.0931 25.0687 73.2248 25.0687H76.9937C77.178 25.0687 77.2838 24.9624 77.2838 24.8029V21.7705H74.888L76.4944 17.9643L76.4953 17.9634Z" fill="#F6F6F6"/>
<path fill-rule="evenodd" clip-rule="evenodd" d="M43.3291 21.9025C43.3291 21.7692 43.2474 21.6089 43.0574 21.6089H38.8208V25.5735H43.0574C43.2474 25.5735 43.3291 25.4411 43.3291 25.3077V21.9025ZM43.3291 14.8787C43.3291 14.7454 43.2474 14.585 43.0574 14.585H38.8208V18.31H43.0574C43.2474 18.31 43.3291 18.1776 43.3291 18.0181V14.8787ZM34.1224 28.9796V11.0204H45.4199C46.9138 11.0204 47.8641 11.951 47.8641 13.2815V17.2722C47.8641 18.4965 47.0497 19.6676 45.3657 20.0666C47.0497 20.4657 48 21.5828 48 22.78V26.6914C48 28.1013 47.0497 28.9796 45.5558 28.9796H34.1224Z" fill="#F6F6F6"/>
</svg>
