<svg width="24" height="24" viewBox="0 0 24 24" fill="none" xmlns="http://www.w3.org/2000/svg">
<g id="Name=Down, State=selected, Dimension=big">
<g id="Group 155">
<path id="Vector" d="M3.39621 7.3824C3.64998 7.13755 3.99411 7 4.35294 7C4.71177 7 5.05591 7.13755 5.30968 7.3824L12.0082 13.8474L18.7067 7.3824C18.9619 7.14449 19.3037 7.01284 19.6585 7.01582C20.0133 7.0188 20.3527 7.15615 20.6036 7.39831C20.8545 7.64046 20.9969 7.96804 20.9999 8.31049C21.003 8.65294 20.8666 8.98285 20.6201 9.22918L12.9649 16.6176C12.7111 16.8625 12.367 17 12.0082 17C11.6493 17 11.3052 16.8625 11.0514 16.6176L3.39621 9.22918C3.14252 8.98425 3 8.65211 3 8.30579C3 7.95947 3.14252 7.62732 3.39621 7.3824Z" fill="#F6F6F6"/>
</g>
</g>
</svg>
