<svg width="16" height="16" viewBox="0 0 16 16" fill="none" xmlns="http://www.w3.org/2000/svg">
<g id="Name=Down, State=unselected, Dimension=medium">
<g id="Group 155">
<path id="Vector" d="M2.26414 4.81053C2.43332 4.6414 2.66274 4.54639 2.90196 4.54639C3.14118 4.54639 3.37061 4.6414 3.53978 4.81053L8.00545 9.27619L12.4711 4.81053C12.6413 4.64619 12.8691 4.55526 13.1057 4.55731C13.3422 4.55937 13.5685 4.65425 13.7358 4.82151C13.903 4.98878 13.9979 5.21505 14 5.45159C14.002 5.68814 13.9111 5.91602 13.7468 6.08617L8.64327 11.1897C8.47409 11.3588 8.24467 11.4538 8.00545 11.4538C7.76623 11.4538 7.5368 11.3588 7.36762 11.1897L2.26414 6.08617C2.09501 5.91699 2 5.68757 2 5.44835C2 5.20913 2.09501 4.9797 2.26414 4.81053Z" fill="#A9A9A9"/>
</g>
</g>
</svg>
