<svg width="16" height="16" viewBox="0 0 16 16" fill="none" xmlns="http://www.w3.org/2000/svg">
<g id="Name=Right, State=selected, Dimension=medium">
<path id="Vector" d="M4.92168 13.5361C4.75845 13.3728 4.66675 13.1514 4.66675 12.9205C4.66675 12.6896 4.75845 12.4682 4.92168 12.3049L9.2317 7.99486L4.92168 3.68483C4.76307 3.52062 4.67531 3.30067 4.67729 3.07237C4.67928 2.84407 4.77085 2.62569 4.93229 2.46425C5.09372 2.30282 5.31211 2.21125 5.54041 2.20926C5.7687 2.20728 5.98865 2.29504 6.15287 2.45365L11.0785 7.37926C11.2417 7.54255 11.3334 7.76397 11.3334 7.99486C11.3334 8.22574 11.2417 8.44717 11.0785 8.61045L6.15287 13.5361C5.98958 13.6993 5.76816 13.791 5.53727 13.791C5.30639 13.791 5.08496 13.6993 4.92168 13.5361Z" fill="#F6F6F6"/>
</g>
</svg>
