<svg width="24" height="24" viewBox="0 0 24 24" fill="none" xmlns="http://www.w3.org/2000/svg">
<g id="Name=Right, State=selected, Dimension=big">
<path id="Vector" d="M7.3824 20.6038C7.13755 20.35 7 20.0059 7 19.6471C7 19.2882 7.13755 18.9441 7.3824 18.6903L13.8474 11.9918L7.3824 5.29334C7.14449 5.03811 7.01284 4.69628 7.01582 4.34147C7.0188 3.98666 7.15615 3.64725 7.39831 3.39635C7.64046 3.14545 7.96804 3.00314 8.31049 3.00005C8.65294 2.99697 8.98285 3.13337 9.22918 3.37987L16.6176 11.0351C16.8625 11.2889 17 11.633 17 11.9918C17 12.3507 16.8625 12.6948 16.6176 12.9486L9.22918 20.6038C8.98425 20.8575 8.65211 21 8.30579 21C7.95947 21 7.62732 20.8575 7.3824 20.6038Z" fill="#F6F6F6"/>
</g>
</svg>
