<svg width="16" height="16" viewBox="0 0 16 16" fill="none" xmlns="http://www.w3.org/2000/svg">
<g id="Name=Left, State=unselected, Dimension=medium">
<path id="Vector" d="M11.0785 2.46416C11.2417 2.62744 11.3334 2.84887 11.3334 3.07975C11.3334 3.31064 11.2417 3.53206 11.0785 3.69535L6.76846 8.00537L11.0785 12.3154C11.2371 12.4796 11.3249 12.6996 11.3229 12.9279C11.3209 13.1562 11.2293 13.3745 11.0679 13.536C10.9064 13.6974 10.6881 13.789 10.4598 13.791C10.2315 13.7929 10.0115 13.7052 9.8473 13.5466L4.92168 8.62096C4.75845 8.45768 4.66675 8.23625 4.66675 8.00537C4.66675 7.77449 4.75845 7.55306 4.92168 7.38978L9.8473 2.46416C10.0106 2.30093 10.232 2.20923 10.4629 2.20923C10.6938 2.20923 10.9152 2.30093 11.0785 2.46416Z" fill="#A9A9A9"/>
</g>
</svg>
