<svg width="24" height="24" viewBox="0 0 24 24" fill="none" xmlns="http://www.w3.org/2000/svg">
<g id="Name=Left, State=selected, Dimension=big">
<path id="Vector" d="M16.6176 3.39621C16.8625 3.64998 17 3.99411 17 4.35294C17 4.71177 16.8625 5.05591 16.6176 5.30968L10.1526 12.0082L16.6176 18.7067C16.8555 18.9619 16.9872 19.3037 16.9842 19.6585C16.9812 20.0133 16.8438 20.3527 16.6017 20.6036C16.3595 20.8545 16.032 20.9969 15.6895 20.9999C15.3471 21.003 15.0171 20.8666 14.7708 20.6201L7.3824 12.9649C7.13755 12.7111 7 12.367 7 12.0082C7 11.6493 7.13755 11.3052 7.3824 11.0514L14.7708 3.39621C15.0157 3.14252 15.3479 3 15.6942 3C16.0405 3 16.3727 3.14252 16.6176 3.39621Z" fill="#F6F6F6"/>
</g>
</svg>
