<svg width="16" height="16" viewBox="0 0 16 16" fill="none" xmlns="http://www.w3.org/2000/svg">
<g id="Name=Share, State=selected, Dimension=medium">
<path id="Vector" d="M11.2143 5.85701H8.42862V9.741C8.42862 9.85467 8.38347 9.96368 8.3031 10.0441C8.22273 10.1244 8.11372 10.1696 8.00005 10.1696C7.88639 10.1696 7.77738 10.1244 7.69701 10.0441C7.61663 9.96368 7.57148 9.85467 7.57148 9.741V5.85701H4.78577C4.38807 5.85743 4.00679 6.01561 3.72558 6.29682C3.44436 6.57804 3.28619 6.95933 3.28577 7.35703V12.5C3.28619 12.8977 3.44436 13.279 3.72558 13.5602C4.00679 13.8414 4.38807 13.9996 4.78577 14H11.2143C11.612 13.9996 11.9933 13.8414 12.2745 13.5602C12.5557 13.279 12.7139 12.8977 12.7143 12.5V7.35703C12.7139 6.95933 12.5557 6.57804 12.2745 6.29682C11.9933 6.01561 11.612 5.85743 11.2143 5.85701ZM8.42862 3.46313L9.83996 4.87422C9.92099 4.95121 10.0289 4.99349 10.1406 4.99206C10.2524 4.99063 10.3592 4.94559 10.4382 4.86656C10.5172 4.78753 10.5623 4.68076 10.5637 4.569C10.5651 4.45724 10.5228 4.34935 10.4459 4.26832L8.303 2.12543C8.22263 2.04512 8.11367 2 8.00005 2C7.88644 2 7.77747 2.04512 7.69711 2.12543L5.55425 4.26832C5.47727 4.34935 5.43499 4.45724 5.43642 4.569C5.43785 4.68076 5.48288 4.78753 5.56191 4.86656C5.64094 4.94559 5.74771 4.99063 5.85947 4.99206C5.97122 4.99349 6.07911 4.95121 6.16014 4.87422L7.57148 3.46313V5.85701H8.42862V3.46313Z" fill="#FF5100"/>
</g>
</svg>
